<?xml version="1.0" encoding="UTF-8" standalone="no"?>
<!DOCTYPE svg PUBLIC "-//W3C//DTD SVG 1.1//EN" "http://www.w3.org/Graphics/SVG/1.1/DTD/svg11.dtd">
<svg version="1.1" xmlns="http://www.w3.org/2000/svg" xmlns:xlink="http://www.w3.org/1999/xlink" preserveAspectRatio="xMidYMid meet" viewBox="0 0 1000 750" width="1000" height="750"><defs><path d="M687.31 82.74C644.01 82.74 604.36 96.43 569.46 123.42C551.85 137.04 535.89 153.71 521.82 173.17C507.75 153.72 491.79 137.04 474.17 123.42C439.27 96.43 399.62 82.74 356.33 82.74C298.41 82.74 245.13 105.93 206.31 148.04C167.95 189.66 146.82 246.51 146.82 308.14C146.82 371.57 170.46 429.63 221.2 490.87C266.6 545.64 331.85 601.25 407.41 665.64C433.21 687.63 462.46 712.55 492.82 739.11C500.85 746.13 511.14 750 521.82 750C532.49 750 542.79 746.13 550.8 739.12C581.17 712.56 610.43 687.62 636.24 665.62C711.79 601.24 777.04 545.64 822.44 490.86C873.19 429.63 896.82 371.57 896.82 308.13C896.82 246.51 875.69 189.66 837.32 148.04C798.5 105.93 745.22 82.74 687.31 82.74Z" id="cbUhB2NbU"></path></defs><g><g><g><use xlink:href="#cbUhB2NbU" opacity="1" fill="#c81313" fill-opacity="1"></use><g><use xlink:href="#cbUhB2NbU" opacity="1" fill-opacity="0" stroke="#000000" stroke-width="1" stroke-opacity="0"></use></g></g></g></g></svg>